<?xml version="1.0" encoding="UTF-8" standalone="no"?>
<!-- Created with Inkscape (http://www.inkscape.org/) -->

<svg
   xmlns:dc="http://purl.org/dc/elements/1.1/"
   xmlns:cc="http://creativecommons.org/ns#"
   xmlns:rdf="http://www.w3.org/1999/02/22-rdf-syntax-ns#"
   xmlns:svg="http://www.w3.org/2000/svg"
   xmlns="http://www.w3.org/2000/svg"
   xmlns:sodipodi="http://sodipodi.sourceforge.net/DTD/sodipodi-0.dtd"
   xmlns:inkscape="http://www.inkscape.org/namespaces/inkscape"
   inkscape:export-ydpi="10160"
   inkscape:export-xdpi="10160"
   inkscape:export-filename="/home/mike/git/keyboard-pcbs/amoeba/dt.copper.png"
   sodipodi:docname="dt-logo.svg"
   inkscape:version="0.48.5 r10040"
   version="1.1"
   id="svg3350"
   height="10.194095"
   width="12.401575">
  <defs
     id="defs3352" />
  <sodipodi:namedview
     id="base"
     pagecolor="#ffffff"
     bordercolor="#666666"
     borderopacity="1.0"
     inkscape:pageopacity="0.0"
     inkscape:pageshadow="2"
     inkscape:zoom="32"
     inkscape:cx="1.9496324"
     inkscape:cy="5.1065733"
     inkscape:document-units="px"
     inkscape:current-layer="layer2"
     showgrid="false"
     fit-margin-top="0"
     fit-margin-left="0"
     fit-margin-right="0"
     fit-margin-bottom="0"
     inkscape:window-width="1364"
     inkscape:window-height="747"
     inkscape:window-x="0"
     inkscape:window-y="19"
     inkscape:window-maximized="0"
     inkscape:snap-bbox="true"
     inkscape:snap-page="true"
     inkscape:snap-global="true"
     inkscape:object-paths="true" />
  <metadata
     id="metadata3355">
    <rdf:RDF>
      <cc:Work
         rdf:about="">
        <dc:format>image/svg+xml</dc:format>
        <dc:type
           rdf:resource="http://purl.org/dc/dcmitype/StillImage" />
        <dc:title />
      </cc:Work>
    </rdf:RDF>
  </metadata>
  <g
     inkscape:groupmode="layer"
     id="layer24"
     inkscape:label="Pretty">
    <g
       inkscape:groupmode="layer"
       id="layer25"
       inkscape:label="Fab" />
    <g
       inkscape:groupmode="layer"
       id="layer26"
       inkscape:label="CrtYd" />
  </g>
  <g
     inkscape:groupmode="layer"
     id="layer17"
     inkscape:label="Legacy">
    <g
       inkscape:groupmode="layer"
       id="layer23"
       inkscape:label="Edge.Cuts" />
    <g
       inkscape:groupmode="layer"
       id="layer18"
       inkscape:label="User">
      <g
         inkscape:groupmode="layer"
         id="layer19"
         inkscape:label="Eco2.User" />
      <g
         inkscape:groupmode="layer"
         id="layer20"
         inkscape:label="Eco1.User" />
      <g
         inkscape:groupmode="layer"
         id="layer21"
         inkscape:label="Cmts.User" />
      <g
         inkscape:groupmode="layer"
         id="layer22"
         inkscape:label="Dwgs.User" />
    </g>
  </g>
  <g
     inkscape:groupmode="layer"
     id="layer1"
     inkscape:label="Mask"
     style="display:inline">
    <path
       style="fill:#330055;fill-opacity:1;stroke:#000000;stroke-width:0.001"
       d="m 2.25,0 7.901575,0 c 1.2465,0 2.25,1.0035 2.25,2.25 l 0,5.6940947 c 0,1.2465 -1.0035,2.2500003 -2.25,2.2500003 l -7.901575,0 C 1.0035,10.194095 0,9.1905947 0,7.9440947 L 0,2.25 C 0,1.0035 1.0035,0 2.25,0 z"
       id="rect4695"
       inkscape:connector-curvature="0" />
  </g>
  <g
     inkscape:groupmode="layer"
     id="layer6"
     inkscape:label="SilkS"
     style="display:inline" />
  <g
     inkscape:groupmode="layer"
     id="layer10"
     inkscape:label="Paste" />
  <g
     inkscape:groupmode="layer"
     id="layer5"
     inkscape:label="Adhes"
     style="display:inline" />
  <g
     inkscape:groupmode="layer"
     id="layer2"
     inkscape:label="Cu"
     transform="translate(1.7716577,1.4563806)"
     style="display:inline">
    <path
       style="fill:#b18883;fill-opacity:1;stroke:none"
       d="m 1.595099,1.6854255 0,3.90993 0.8293619,0 c 0.04103,0 0.1246753,-0.00848 0.1420141,-0.011361 0.3963857,-0.065836 0.6964367,-0.4112004 0.6964367,-0.8270898 l 0,-2.2324605 c 0,-0.4158631 -0.3061795,-0.7304025 -0.6964367,-0.8259535 -0.034189,-0.00837 -0.1042411,-0.013065 -0.1420141,-0.013065 z"
       id="rect4005-0"
       inkscape:connector-curvature="0"
       sodipodi:nodetypes="ccssssssc" />
    <path
       style="fill:#b18883;fill-opacity:1;stroke:none;display:inline"
       d="M 0.4658035,2.9578979e-6 C 0.2079133,2.9578979e-6 -2.5e-6,0.15682656 -2.5e-6,0.35219776 l 0,6.57581734 c 0,0.1953713 0.2079158,0.3533309 0.465806,0.3533309 l 3.9161787,0 c 0.2578899,0 0.465806,-0.1579596 0.465806,-0.3533309 l 0,-6.57581734 C 4.8477882,0.15682656 4.6398721,2.9578979e-6 4.3819822,2.9578979e-6 z M 0.89298168,1.0054623 l 1.35879022,0 0.3453781,0 0.019314,0 c 0.742411,0 1.3394763,0.5970655 1.3394763,1.3394762 l 0,2.5903358 c 0,0.7424106 -0.5970653,1.3406124 -1.3394763,1.3406124 l -0.019314,0 -0.3453781,0 -1.35879022,0 z"
       id="rect4005-0-1"
       inkscape:connector-curvature="0"
       sodipodi:nodetypes="ssssssssscccsssscccc" />
    <path
       style="fill:#b18883;fill-opacity:1;stroke:none"
       d="m 5.818028,0.99106216 c -0.1172227,0 -0.2124529,0.12659494 -0.2124529,0.28289194 l 0,0.1533751 c 0,0.156297 0.09523,0.282892 0.2124529,0.282892 l 1.0668094,0 0,4.3115457 c 0,0.1484821 0.1196404,0.2681225 0.2681225,0.2681225 l 0.1920029,0 c 0.1484821,0 0.2681225,-0.1196404 0.2681225,-0.2681225 l 0,-4.3115457 1.032726,0 c 0.1172228,0 0.212453,-0.126595 0.212453,-0.282892 l 0,-0.1533751 c 0,-0.156297 -0.09523,-0.28289194 -0.212453,-0.28289194 l -2.8277833,0 z"
       id="rect4007-1"
       inkscape:connector-curvature="0" />
  </g>
</svg>
